<svg width="165" height="47" viewBox="0 0 165 47" fill="none" xmlns="http://www.w3.org/2000/svg">
<path d="M38.284 8.04087V28.9707H22.6152L38.284 8.04087V0.202896H35.7696L0 45.8404H9.38899L17.369 35.5982H38.284V45.8404H45.9708V8.04087H38.284Z" fill="white"/>
<path d="M164.071 27.6912C162.904 8.17675 135.076 5.41495 129.528 23.215C125.759 35.3076 134.171 46.7562 146.532 46.6851C153.79 46.6433 161.069 42.3887 163.333 35.1445H156.089C151.639 43.5637 137.301 41.68 135.839 31.8308H163.702C164.19 30.6871 164.147 28.9811 164.069 27.6912H164.071ZM135.841 25.8075C138.265 14.729 154.537 14.7478 156.83 25.8075H135.841Z" fill="white"/>
<path d="M69.148 11.3943C56.5083 12.4961 49.6194 27.0807 55.9976 38.1091C64.0966 52.1104 86.8144 48.2259 88.9678 31.5882C90.5778 19.1403 81.0657 10.3552 69.15 11.3943H69.148ZM81.9086 32.0775C79.6691 41.4897 66.529 43.1079 61.9104 34.7954C58.2167 28.147 61.8078 18.7619 69.5889 17.8671C77.9914 16.9012 83.9021 23.7022 81.9086 32.0775Z" fill="white"/>
<path d="M125.796 26.1838L125.79 45.8383H118.398V26.1838C118.398 19.456 110.74 17.3339 105.586 19.6044C103.755 20.4114 101.464 23.4889 101.548 26.1838V45.6125L101.327 45.8383H94.0092V20.3843H90.3135V12.7031H98.0002V17.7479C97.9161 17.7145 98.0002 17.8253 98.0002 17.7479C98.4576 17.1437 103.039 12.1302 110.435 12.1302C110.435 12.1302 125.794 12.1302 125.794 26.1817L125.796 26.1838Z" fill="white"/>
</svg>
